# xmcd CD database file
#
# Track frame offsets:
#	180
#	16984
#	46638
#	66992
#	90485
#	125043
#	154722
#	191004
#	225704
#	244263
#	308164
#
# Disc length: 4410 seconds
#
# Revision: 0
# Processed by: cddbd v1.5.1PL0 Copyright (c) Steve Scherf et al.
# Submitted via: CDex 1.51
#
DISCID=8a11380b
DTITLE=U.S. Army Blues - 25th Anniversary
DYEAR=1900
DGENRE=Blues
TTITLE0=Air Mail Special
TTITLE1=Willow Weep For Me
TTITLE2=Oh, Lady, Be Good!
TTITLE3=Desafinado
TTITLE4=A Sideward Glance
TTITLE5=Body and Soul
TTITLE6=My Ship
TTITLE7=Summertime
TTITLE8=Star Dust
TTITLE9=Conspiracy Theory
TTITLE10=Love Makes The World Go Round
EXTD=
EXTT0=
EXTT1=
EXTT2=
EXTT3=
EXTT4=
EXTT5=
EXTT6=
EXTT7=
EXTT8=
EXTT9=
EXTT10=
PLAYORDER=
